<svg xmlns="http://www.w3.org/2000/svg" width="70.82" height="72" viewBox="0 0 70.82 72"><path d="M5.9,35.41a5.9,5.9,0,0,1-5.9-5.9V27.148a1.181,1.181,0,0,1,1.18-1.181H3.541V1.18A1.181,1.181,0,0,1,4.721,0h11a1.18,1.18,0,0,1,0,2.361H5.9V25.967H36.59V14.4a1.18,1.18,0,0,1,2.361,0V25.967h2.361a1.181,1.181,0,0,1,1.18,1.181v2.361a5.9,5.9,0,0,1-5.9,5.9Z" transform="translate(0 36.59)"/><path d="M5.9,2.361H8.262A1.18,1.18,0,1,0,8.262,0H5.9A3.541,3.541,0,0,0,2.361,3.541v1.18H1.18a1.18,1.18,0,0,0,0,2.361h1.18v3.541a1.18,1.18,0,1,0,2.361,0V7.082H5.9a1.18,1.18,0,0,0,0-2.361H4.721V3.541A1.18,1.18,0,0,1,5.9,2.361Z" transform="translate(55.475 5.902)"/><path d="M17.7,0H3.541A3.541,3.541,0,0,0,0,3.541V5.9a1.18,1.18,0,0,0,2.361,0V3.541a1.18,1.18,0,0,1,1.18-1.18H17.7a1.18,1.18,0,0,1,1.18,1.18V17.7a1.18,1.18,0,0,1-1.18,1.18H3.541a1.18,1.18,0,0,1-1.18-1.18V10.623a1.18,1.18,0,0,0-2.361,0V17.7a3.541,3.541,0,0,0,3.541,3.541H17.7A3.541,3.541,0,0,0,21.246,17.7V3.541A3.541,3.541,0,0,0,17.7,0Z" transform="translate(49.574 1.18)"/><path d="M0,4.721A4.721,4.721,0,1,1,4.721,9.443,4.722,4.722,0,0,1,0,4.721Z" transform="translate(55.475 43.672)"/><path d="M17.7,0H3.541A3.541,3.541,0,0,0,0,3.541V17.7a3.541,3.541,0,0,0,3.541,3.541H17.7A3.541,3.541,0,0,0,21.246,17.7V15.344a1.18,1.18,0,1,0-2.361,0V17.7a1.18,1.18,0,0,1-1.18,1.18H3.541a1.18,1.18,0,0,1-1.18-1.18V3.541a1.18,1.18,0,0,1,1.18-1.18H17.7a1.18,1.18,0,0,1,1.18,1.18v7.082a1.18,1.18,0,1,0,2.361,0V3.541A3.541,3.541,0,0,0,17.7,0Z" transform="translate(49.574 37.77)"/><path d="M.554,9.262a1.181,1.181,0,0,1-.554-1V1.177A1.181,1.181,0,0,1,1.712.126L8.793,3.668a1.18,1.18,0,0,1,0,2.1L1.712,9.31a1.187,1.187,0,0,1-.532.13h0A1.184,1.184,0,0,1,.554,9.262Z" transform="translate(25.967 5.905)"/><path d="M0,10.623A10.623,10.623,0,1,1,10.623,21.246,10.623,10.623,0,0,1,0,10.623Z" transform="translate(18.885)"/><path d="M1.18,7.082a1.18,1.18,0,0,0,.944-.472L5.666,1.889A1.18,1.18,0,1,0,3.777.472L.236,5.194A1.18,1.18,0,0,0,1.18,7.082Z" transform="translate(40.131 18.885)"/><path d="M.236,5.43a1.18,1.18,0,0,0,1.652.236L6.61,2.125A1.18,1.18,0,0,0,5.194.236L.472,3.777A1.18,1.18,0,0,0,.236,5.43Z" transform="translate(43.672 24.787)"/><path d="M8.386.972A1.18,1.18,0,0,0,6.97.028l-5.9,1.18A1.186,1.186,0,1,0,1.3,3.569H1.54l5.9-1.18A1.18,1.18,0,0,0,8.386.972Z" transform="translate(47.089 31.841)"/><path d="M1.18,21.246A1.181,1.181,0,0,1,0,20.066V1.18A1.18,1.18,0,0,1,1.18,0H15.344a1.181,1.181,0,0,1,1.181,1.18V20.066a1.181,1.181,0,0,1-1.181,1.181Z" transform="translate(0 11.803)"/><path d="M3.541,0H1.18a1.18,1.18,0,0,0,0,2.361H3.541A1.18,1.18,0,1,0,3.541,0Z" transform="translate(7.082 16.525)"/><path d="M5.9,0H1.18a1.18,1.18,0,0,0,0,2.361H5.9A1.18,1.18,0,0,0,5.9,0Z" transform="translate(4.721 21.246)"/><path d="M5.9,0H1.18a1.18,1.18,0,0,0,0,2.361H5.9A1.18,1.18,0,0,0,5.9,0Z" transform="translate(4.721 25.967)"/><path d="M15.552,32.539l-2.361-4.1-1.027.59A4.648,4.648,0,0,1,9.8,29.67,4.438,4.438,0,0,1,8.564,29.5,4.575,4.575,0,0,1,6.5,28.277l-1.18.673a3.617,3.617,0,0,1-1.771.472,3.54,3.54,0,0,1-1.77-6.611l1.181-.672A4.72,4.72,0,0,1,5.13,16.793l5.028-2.9L26.682.268a1.2,1.2,0,0,1,1.783.319l1.18,2.042A1.185,1.185,0,0,1,27.591,3.81l-.483-.839L12.294,15.188l3.046,5.264a1.185,1.185,0,0,1-2.054,1.181l-2.951-5.111L6.251,18.882A2.361,2.361,0,0,0,5.366,22l2.361,4.084a2.355,2.355,0,0,0,3.222.861l2.042-1.18,3.069-1.77h.177l18.885-7.082L29.917,7.9a1.184,1.184,0,0,1,2.054-1.18l5.878,10.2a1.183,1.183,0,0,1-.614,1.688l-17.7,6.646L21.678,29a3.538,3.538,0,1,1-6.126,3.542Z" transform="translate(8.302 25.97)"/></svg>