<svg xmlns="http://www.w3.org/2000/svg" width="72" height="35.685" viewBox="0 0 72 35.685"><g transform="translate(0 -0.017)"><path d="M30.22.01a1.056,1.056,0,0,0-1.189.9,15.715,15.715,0,0,1-5.2,9.667,15.714,15.714,0,0,1-10.384,3.914,15.638,15.638,0,0,1-6.01-1.189c-.032-.013-.068-.026-.1-.036A19.609,19.609,0,0,1,1.713,9.9,1.056,1.056,0,1,0,.4,11.556a21.67,21.67,0,0,0,6.271,3.719,17.742,17.742,0,0,0,6.775,1.331,17.825,17.825,0,0,0,11.779-4.44A17.827,17.827,0,0,0,31.123,1.2,1.056,1.056,0,0,0,30.22.01Z" transform="translate(40.867 19.095)"/><path d="M17.843,35.685A17.822,17.822,0,0,1,5.349,5.134a17.814,17.814,0,0,1,19.1-3.87c.1.039.194.077.293.113.973.364,5.917,2.469,11.483,9.4C42.7,2.8,46.708,1.507,47.592,1.309A17.746,17.746,0,0,1,53.579.015H53.6L54.292,0h.022A17.847,17.847,0,0,1,71.94,15.059a1.056,1.056,0,0,1-2.087.327A15.734,15.734,0,0,0,54.324,2.112l-.67.013A15.615,15.615,0,0,0,48.3,3.3a.819.819,0,0,1-.23.066c-.212.049-4.066,1.037-10.563,9.182l-.014.016S30.154,21.31,27.11,24.5c-2.08,2.182-5.022,4.688-9.337,4.688a11.351,11.351,0,0,1-6.289-20.8,1.056,1.056,0,0,1,1.172,1.757A9.239,9.239,0,0,0,17.773,27.08c2.741,0,5.15-1.244,7.807-4.034,1.8-1.887,3.455-3.7,5-5.482-.979-1.072-3.041-3.261-5.5-5.456-3.462-3.087-5.637-3.5-7.306-3.5h0c-.308,0-.617.016-.922.046a1.056,1.056,0,0,1-.209-2.1c.374-.037.754-.056,1.13-.056h0c3.684,0,6.471,2.042,8.713,4.04,2.415,2.153,4.418,4.256,5.482,5.414.542-.644,2.885-3.506,2.885-3.506C29.4,5.518,24.552,3.56,24,3.355q-.169-.063-.335-.13A15.653,15.653,0,0,0,18,2.112h-.159A15.73,15.73,0,0,0,6.679,28.924a15.623,15.623,0,0,0,11.154,4.649l.67-.014a15.636,15.636,0,0,0,5.351-1.175.81.81,0,0,1,.23-.066c.215-.049,4.145-1.058,10.764-9.435.251-.318,7.154-8.508,10.2-11.7C47.127,9,50.068,6.493,54.383,6.493a11.35,11.35,0,0,1,0,22.7h0c-3.684,0-6.472-2.042-8.713-4.04C43.257,23,41.252,20.9,40.19,19.737c-.543.643-2.612,3.166-3.166,3.835.653.758,1.319,1.484,1.985,2.164A1.056,1.056,0,0,1,37.5,27.212c-.613-.627-1.225-1.292-1.829-1.981-6.315,7.688-10.231,8.95-11.1,9.144a17.742,17.742,0,0,1-5.987,1.3h-.022l-.691.014Z" transform="translate(-0.001 0.017)"/></g></svg>