<svg xmlns="http://www.w3.org/2000/svg" xmlns:xlink="http://www.w3.org/1999/xlink" width="169.054" height="16" viewBox="0 0 169.054 16">
  <defs>
    <linearGradient id="a" y1="1" x2="0.5" gradientUnits="objectBoundingBox">
      <stop offset="0" stop-color="#ffc593"/>
      <stop offset="0.519" stop-color="#bc7198"/>
      <stop offset="1" stop-color="#5a77ff"/>
    </linearGradient>
  </defs>
  <path d="M84.929,15.6a8.8,8.8,0,0,1-1.881-.9,7.107,7.107,0,0,1-1.535-1.3l2.378-2.487a5.357,5.357,0,0,0,.887.822,5.552,5.552,0,0,0,1.027.552,3.422,3.422,0,0,0,1.33.248,2,2,0,0,0,1.427-.487,1.507,1.507,0,0,0,.519-1.135.9.9,0,0,0-.519-.811,7.507,7.507,0,0,0-1.3-.551q-.779-.261-1.7-.562a6.989,6.989,0,0,1-1.7-.822,4.351,4.351,0,0,1-1.3-1.362,4.068,4.068,0,0,1-.519-2.163,3.9,3.9,0,0,1,.411-1.73,4.675,4.675,0,0,1,1.157-1.491A5.726,5.726,0,0,1,85.427.389,6.8,6.8,0,0,1,87.784,0a7.486,7.486,0,0,1,2.378.335,7.7,7.7,0,0,1,1.643.746,5.565,5.565,0,0,1,1.275,1.081L90.7,4.648a3.9,3.9,0,0,0-.692-.583,3.556,3.556,0,0,0-.779-.422,2.689,2.689,0,0,0-1.016-.184,1.691,1.691,0,0,0-1.178.4,1.189,1.189,0,0,0-.444.9.9.9,0,0,0,.519.811,7.534,7.534,0,0,0,1.3.552q.779.259,1.7.562a7.022,7.022,0,0,1,1.7.822,4.344,4.344,0,0,1,1.3,1.363,4.062,4.062,0,0,1,.519,2.162,4.543,4.543,0,0,1-.41,1.913,4.66,4.66,0,0,1-1.19,1.579,5.79,5.79,0,0,1-1.9,1.081,7.569,7.569,0,0,1-2.552.4A7.855,7.855,0,0,1,84.929,15.6Zm-16.475-.238a8.425,8.425,0,0,1-2.67-1.741A8.2,8.2,0,0,1,64,11.07a7.588,7.588,0,0,1,0-6.141,8.187,8.187,0,0,1,1.784-2.551A8.425,8.425,0,0,1,68.454.638a8.978,8.978,0,0,1,6.648,0,8.375,8.375,0,0,1,2.681,1.741,8.172,8.172,0,0,1,1.784,2.551,7.588,7.588,0,0,1,0,6.141,8.186,8.186,0,0,1-1.784,2.551A8.375,8.375,0,0,1,75.1,15.362a8.978,8.978,0,0,1-6.648,0Zm-32,0a8.4,8.4,0,0,1-2.67-1.741A8.186,8.186,0,0,1,32,11.07a7.588,7.588,0,0,1,0-6.141,8.172,8.172,0,0,1,1.784-2.551A8.4,8.4,0,0,1,36.455.638a8.978,8.978,0,0,1,6.648,0,8.394,8.394,0,0,1,2.681,1.741,8.187,8.187,0,0,1,1.784,2.551,7.588,7.588,0,0,1,0,6.141,8.2,8.2,0,0,1-1.784,2.551A8.394,8.394,0,0,1,43.1,15.362a8.978,8.978,0,0,1-6.648,0Zm93.167.205V.432h6.811a6.328,6.328,0,0,1,2.291.4A5.186,5.186,0,0,1,140.5,1.946a5.063,5.063,0,0,1,1.146,1.687,5.327,5.327,0,0,1,.411,2.1,5.306,5.306,0,0,1-.411,2.109A5.1,5.1,0,0,1,140.5,9.514a5.186,5.186,0,0,1-1.773,1.113,6.328,6.328,0,0,1-2.291.4h-2.7v4.541Zm-6.162,0-1.081-3.243h-4.973l-1.081,3.243h-4.433L117.622.432h4.54l5.729,15.135Zm-16.844,0-6.508-8.432v8.432H96V.432h3.568l6.486,8.433V.432h4.108V15.567Zm-52.886,0V4.109H49.514V.432H62.054V4.109H57.838V15.567Zm-29.082,0V9.73H19.135v5.837H15.027V.432h4.108V6.054h5.513V.432h4.109V15.567ZM0,15.567V.432H6.811A6.331,6.331,0,0,1,9.1.833a5.186,5.186,0,0,1,1.773,1.113,5.063,5.063,0,0,1,1.146,1.687,5.327,5.327,0,0,1,.411,2.1,5.306,5.306,0,0,1-.411,2.109,5.1,5.1,0,0,1-1.146,1.676A5.186,5.186,0,0,1,9.1,10.627a6.331,6.331,0,0,1-2.291.4h-2.7v4.541Z" transform="translate(27)" fill="#000"/><path d="M0,16,9.5,0,19,16Z" fill="url(#a)"/></svg>