<svg xmlns="http://www.w3.org/2000/svg" width="71.853" height="71.852" viewBox="0 0 71.853 71.852"><g transform="translate(0 0)"><path d="M1.183,33.561A1.183,1.183,0,0,1,0,32.378V1.183A1.182,1.182,0,0,1,1.183,0H26.316A1.182,1.182,0,0,1,27.5,1.183V32.378a1.182,1.182,0,0,1-1.183,1.183Z" transform="translate(3.696 31.491)"/><path d="M3.553,0H1.183a1.183,1.183,0,0,0,0,2.366H3.553A1.183,1.183,0,0,0,3.553,0Z" transform="translate(15.082 66.086)"/><path d="M30.983,71.852H4.9A4.866,4.866,0,0,1,0,66.959V32.792a4.951,4.951,0,0,1,4.894-5h.724V16.455a6.7,6.7,0,0,1,6.674-6.7H48.641V3.524A3.6,3.6,0,0,1,52.3,0H68.33a3.482,3.482,0,0,1,3.523,3.523v31.26A3.6,3.6,0,0,1,68.33,38.44h-2.1V49.972h1.733a1.23,1.23,0,0,1,1.223,1.2V55.4a6.736,6.736,0,0,1-6.724,6.7H34.891v5.777a3.372,3.372,0,0,1-1.073,2.8,3.906,3.906,0,0,1-2.8,1.183Z" transform="translate(0 0)"/><path d="M4.287,0h-3.1a1.183,1.183,0,0,0,0,2.366h3.1A1.183,1.183,0,1,0,4.287,0Z" transform="translate(57.659 32.23)"/></g></svg>