<svg xmlns="http://www.w3.org/2000/svg" width="20" height="20" viewBox="0 0 20 20"><path d="M10,0A10,10,0,0,0,6.356,19.312a9.56,9.56,0,0,1,.035-2.868c.182-.781,1.173-4.971,1.173-4.971a3.612,3.612,0,0,1-.3-1.485c0-1.39.806-2.428,1.809-2.428a1.256,1.256,0,0,1,1.265,1.408A20.106,20.106,0,0,1,9.51,12.3,1.452,1.452,0,0,0,10.991,14.1c1.778,0,3.143-1.874,3.143-4.579A3.947,3.947,0,0,0,9.958,5.457,4.328,4.328,0,0,0,5.443,9.8a3.885,3.885,0,0,0,.744,2.282.3.3,0,0,1,.069.288L5.978,13.5c-.044.183-.145.222-.335.134-1.249-.582-2.03-2.408-2.03-3.874,0-3.154,2.292-6.052,6.608-6.052a5.869,5.869,0,0,1,6.165,5.776c0,3.447-2.173,6.22-5.189,6.22A2.674,2.674,0,0,1,8.9,14.555l-.623,2.378a11.127,11.127,0,0,1-1.243,2.622A10,10,0,1,0,10,0Z" fill="#fff"/></svg>